<svg width="862" height="200" viewBox="0 0 862 200" fill="none" xmlns="http://www.w3.org/2000/svg">
<path d="M260.137 74.9987C260.137 76.1665 260.19 77.4934 260.296 78.9797C260.827 78.6612 261.464 78.2896 262.207 77.865C263.056 77.4404 263.746 77.0157 264.277 76.5911C266.506 74.9987 269.001 73.7248 271.761 72.7694C274.521 71.8139 277.335 71.2831 280.201 71.177C283.173 71.0708 286.04 71.3893 288.8 72.1324C291.56 72.8755 294.055 74.2025 296.284 76.1134C296.815 76.6442 297.345 77.5465 297.876 78.8204C298.407 78.5019 299.044 78.1835 299.787 77.865C300.53 77.4404 301.167 77.0157 301.698 76.5911C303.927 74.9987 306.422 73.7248 309.182 72.7694C311.942 71.8139 314.756 71.2831 317.622 71.177C320.594 71.0708 323.461 71.3893 326.221 72.1324C328.981 72.8755 331.476 74.2025 333.705 76.1134C334.767 77.0688 335.563 79.0858 336.093 82.1644C336.73 85.1369 337.102 88.7463 337.208 92.9926C337.42 97.239 337.474 101.91 337.367 107.006C337.367 111.995 337.314 117.091 337.208 122.293C337.102 127.388 336.996 132.325 336.89 137.102C336.784 141.879 336.837 146.072 337.049 149.682C333.333 150.212 329.989 150.425 327.017 150.318C324.151 150.318 320.86 150.318 317.144 150.318C316.932 147.877 316.826 145.117 316.826 142.038C316.826 138.959 316.826 135.775 316.826 132.484C316.932 129.193 316.932 125.902 316.826 122.611C316.826 119.32 316.719 116.241 316.507 113.375C316.401 112.101 316.295 110.721 316.189 109.235C316.083 107.643 315.87 106.103 315.552 104.617C315.339 103.131 314.968 101.804 314.437 100.636C314.012 99.4683 313.375 98.566 312.526 97.929C312.42 97.8229 312.314 97.7698 312.208 97.7698C312.102 97.7698 311.995 97.7167 311.889 97.6106C311.252 97.2921 310.456 97.0267 309.501 96.8144C308.545 96.602 307.484 96.4959 306.316 96.4959C305.254 96.4959 304.14 96.7082 302.972 97.1328C301.91 97.4513 300.902 97.9821 299.946 98.7252C300.053 102.865 300.053 107.271 299.946 111.942C299.84 116.507 299.734 121.072 299.628 125.637C299.522 130.095 299.416 134.448 299.309 138.694C299.309 142.834 299.416 146.497 299.628 149.682C295.912 150.212 292.568 150.425 289.596 150.318C286.73 150.318 283.439 150.318 279.723 150.318C279.511 147.877 279.405 145.117 279.405 142.038C279.405 138.959 279.405 135.775 279.405 132.484C279.511 129.193 279.511 125.902 279.405 122.611C279.405 119.32 279.298 116.241 279.086 113.375C278.98 112.101 278.874 110.721 278.768 109.235C278.662 107.643 278.449 106.103 278.131 104.617C277.918 103.131 277.547 101.804 277.016 100.636C276.591 99.4683 275.954 98.566 275.105 97.929C274.999 97.8229 274.893 97.7698 274.787 97.7698C274.681 97.7698 274.574 97.7167 274.468 97.6106C273.619 97.1859 272.345 96.8674 270.646 96.6551C269.054 96.3366 267.462 96.4428 265.869 96.9736C264.277 97.3982 262.844 98.3537 261.57 99.8399C260.296 101.22 259.553 103.343 259.341 106.209C259.128 109.925 259.075 113.587 259.181 117.197C259.287 120.7 259.394 124.256 259.5 127.866C259.712 131.369 259.818 134.872 259.818 138.376C259.818 141.879 259.606 145.382 259.181 148.885V149.522C257.377 150.053 255.784 150.372 254.404 150.478C253.13 150.584 251.803 150.584 250.423 150.478C249.043 150.478 247.504 150.425 245.805 150.318C244.107 150.212 241.984 150.265 239.436 150.478C239.436 137.42 239.277 124.363 238.958 111.305C238.746 98.2475 238.852 84.7122 239.277 70.6993C240.55 70.8054 241.612 70.9116 242.461 71.0177C243.311 71.0177 244.107 71.0177 244.85 71.0177C245.593 71.0177 246.389 71.0177 247.238 71.0177C248.088 70.9116 249.149 70.8054 250.423 70.6993C250.848 70.6993 251.591 70.6462 252.653 70.54C253.714 70.3277 254.776 70.1685 255.837 70.0623C256.899 69.9562 257.854 69.9562 258.704 70.0623C259.553 70.0623 259.978 70.2215 259.978 70.54C260.19 72.3447 260.243 73.831 260.137 74.9987ZM411.189 70.2215C413.843 70.3277 416.869 70.4869 420.266 70.6993C420.372 71.3362 420.425 71.9732 420.425 72.6101C420.531 73.2471 420.584 73.884 420.584 74.521V76.1134C420.266 87.5785 420.319 98.8845 420.744 110.031C421.168 121.072 421.009 132.271 420.266 143.63C420.266 145.011 420.213 146.391 420.107 147.771C420.107 149.151 419.47 149.947 418.196 150.159H416.285C414.586 150.159 412.835 150.106 411.03 150C409.332 149.788 407.633 149.682 405.934 149.682C404.767 149.682 403.599 149.788 402.431 150C401.37 150.106 400.255 150.159 399.087 150.159C398.344 149.947 397.813 149.522 397.495 148.885C397.283 148.248 397.176 147.505 397.176 146.656C397.176 145.488 397.283 144.533 397.495 143.79C397.707 143.047 397.813 142.144 397.813 141.083C395.265 143.63 392.028 145.807 388.1 147.611C384.278 149.416 380.509 150.318 376.794 150.318C372.654 150.318 369.097 148.885 366.125 146.019C363.259 143.153 360.87 139.596 358.959 135.35C357.048 131.104 355.615 126.486 354.66 121.496C353.81 116.507 353.386 111.889 353.386 107.643C353.386 102.335 354.076 97.4513 355.456 92.9926C356.836 88.534 358.694 84.7122 361.029 81.5275C363.471 78.2365 366.337 75.6887 369.628 73.884C372.919 71.9732 376.422 70.9647 380.138 70.8585C382.049 70.8585 383.8 70.9116 385.393 71.0177C387.091 71.0177 388.631 71.2831 390.011 71.8139C391.391 72.2386 392.612 72.9817 393.673 74.0433C394.735 74.9987 395.637 76.3788 396.38 78.1835C396.274 76.4849 396.327 75.0518 396.539 73.884C396.858 72.6101 397.017 71.3362 397.017 70.0623C397.017 69.9562 397.336 69.9031 397.973 69.9031C398.716 69.7969 399.512 69.7969 400.361 69.9031C401.21 69.9031 402.06 69.9031 402.909 69.9031C403.758 69.9031 404.342 69.9031 404.661 69.9031C406.465 70.0092 408.642 70.1154 411.189 70.2215ZM378.386 95.3812C375.945 97.3982 374.458 99.7337 373.928 102.388C373.503 103.768 373.238 105.201 373.131 106.687C373.025 108.067 372.972 109.447 372.972 110.827C372.972 115.605 374.193 119.692 376.635 123.089C379.182 126.38 382.686 128.025 387.144 128.025C389.798 128.025 391.762 127.6 393.036 126.751C394.416 125.796 395.372 124.522 395.902 122.929C396.539 121.231 396.858 119.214 396.858 116.878C396.964 114.437 397.017 111.73 397.017 108.757C397.017 105.042 396.964 102.122 396.858 99.9991C396.858 97.7698 396.592 96.0713 396.062 94.9035C395.637 93.7358 394.841 92.9926 393.673 92.6742C392.612 92.3557 390.966 92.1965 388.737 92.1965C384.384 92.1965 380.934 93.258 378.386 95.3812ZM460.806 74.9987C460.806 76.1665 460.859 77.4934 460.965 78.9797C461.496 78.6612 462.133 78.2896 462.876 77.865C463.725 77.4404 464.415 77.0157 464.946 76.5911C467.175 74.9987 469.67 73.7248 472.43 72.7694C475.19 71.8139 478.004 71.2831 480.87 71.177C483.842 71.0708 486.709 71.3893 489.469 72.1324C492.229 72.8755 494.724 74.2025 496.953 76.1134C498.014 77.0688 498.811 79.0858 499.341 82.1644C499.978 85.1369 500.35 88.7463 500.456 92.9926C500.668 97.239 500.722 101.91 500.615 107.006C500.615 111.995 500.562 117.091 500.456 122.293C500.35 127.388 500.244 132.325 500.138 137.102C500.032 141.879 500.085 146.072 500.297 149.682C496.581 150.212 493.237 150.425 490.265 150.318C487.399 150.318 484.108 150.318 480.392 150.318C480.18 147.877 480.074 145.117 480.074 142.038C480.074 138.959 480.074 135.775 480.074 132.484C480.18 129.193 480.18 125.902 480.074 122.611C480.074 119.32 479.967 116.241 479.755 113.375C479.649 112.101 479.543 110.721 479.437 109.235C479.331 107.643 479.118 106.103 478.8 104.617C478.587 103.131 478.216 101.804 477.685 100.636C477.26 99.4683 476.623 98.566 475.774 97.929C475.668 97.8229 475.562 97.7698 475.456 97.7698C475.35 97.7698 475.243 97.7167 475.137 97.6106C474.288 97.1859 473.014 96.8674 471.316 96.6551C469.723 96.3366 468.131 96.4428 466.538 96.9736C464.946 97.3982 463.513 98.3537 462.239 99.8399C460.965 101.22 460.222 103.343 460.01 106.209C459.797 109.925 459.744 113.587 459.85 117.197C459.957 120.7 460.063 124.256 460.169 127.866C460.381 131.369 460.487 134.872 460.487 138.376C460.487 141.879 460.275 145.382 459.85 148.885V149.522C458.046 150.053 456.453 150.372 455.073 150.478C453.799 150.584 452.472 150.584 451.092 150.478C449.712 150.478 448.173 150.425 446.474 150.318C444.776 150.212 442.653 150.265 440.105 150.478C440.105 137.42 439.946 124.363 439.627 111.305C439.415 98.2475 439.521 84.7122 439.946 70.6993C441.219 70.8054 442.281 70.9116 443.13 71.0177C443.98 71.0177 444.776 71.0177 445.519 71.0177C446.262 71.0177 447.058 71.0177 447.907 71.0177C448.757 70.9116 449.818 70.8054 451.092 70.6993C451.517 70.6993 452.26 70.6462 453.322 70.54C454.383 70.3277 455.445 70.1685 456.506 70.0623C457.568 69.9562 458.523 69.9562 459.373 70.0623C460.222 70.0623 460.647 70.2215 460.647 70.54C460.859 72.3447 460.912 73.831 460.806 74.9987ZM543.641 110.509C541.305 110.403 539.607 110.243 538.545 110.031V112.897C538.651 116.082 538.758 118.683 538.864 120.7C539.076 122.717 539.766 124.681 540.934 126.592C542.208 129.034 544.012 130.838 546.348 132.006C548.683 133.174 550.966 133.545 553.195 133.121C555.425 132.696 557.282 131.422 558.769 129.299C560.361 127.07 561.051 123.779 560.839 119.426C561.9 119.532 563.333 119.585 565.138 119.585C566.943 119.479 568.801 119.373 570.711 119.267C572.728 119.161 574.639 119.161 576.444 119.267C578.249 119.267 579.735 119.426 580.903 119.745C580.69 122.505 580.478 125.212 580.266 127.866C580.053 130.52 579.788 133.015 579.47 135.35C579.151 137.579 578.726 139.543 578.196 141.242C577.771 142.834 577.187 143.949 576.444 144.586C574.639 147.134 572.304 148.938 569.437 150C566.571 151.062 563.44 151.699 560.042 151.911C556.645 152.123 553.142 152.123 549.533 151.911C546.029 151.699 542.792 151.592 539.819 151.592C536.847 151.168 534.087 150.212 531.539 148.726C528.672 146.709 526.284 144.108 524.373 140.923C522.462 137.632 520.923 134.076 519.755 130.254C518.587 126.327 517.791 122.186 517.367 117.834C516.942 113.481 516.836 109.129 517.048 104.776C517.367 100.848 517.685 97.0798 518.003 93.4704C518.428 89.7548 519.277 86.1454 520.551 82.6421C521.931 79.5635 524.055 76.9626 526.921 74.8395C529.787 72.6101 533.025 70.9647 536.634 69.9031C540.244 68.7353 544.065 68.0984 548.1 67.9922C552.134 67.886 556.061 68.3107 559.883 69.2661C564.766 70.1154 568.694 71.8139 571.667 74.3617C574.639 76.9096 576.869 79.9882 578.355 83.5976C579.947 87.207 580.903 91.1879 581.221 95.5405C581.54 99.893 581.54 104.299 581.221 108.757C580.478 108.97 579.045 109.182 576.922 109.394C574.905 109.607 572.463 109.819 569.597 110.031C566.837 110.243 563.864 110.403 560.679 110.509C557.495 110.615 554.416 110.668 551.444 110.668C548.577 110.668 545.976 110.615 543.641 110.509ZM562.272 89.6486C561.21 87.7378 559.724 86.3046 557.813 85.3492C556.964 84.8184 556.115 84.4468 555.265 84.2345C554.416 83.9161 553.407 83.7568 552.24 83.7568C549.692 83.7568 547.622 84.0222 546.029 84.553C544.437 85.0838 543.163 85.8269 542.208 86.7823C541.252 87.7378 540.509 88.8524 539.978 90.1264C539.554 91.4003 539.235 92.7272 539.023 94.1073C538.811 95.2751 538.704 96.1243 538.704 96.6551C538.811 97.0798 539.341 97.3982 540.297 97.6106C541.252 97.7167 542.739 97.7698 544.756 97.7698C546.879 97.6636 549.957 97.6106 553.991 97.6106C556.751 97.6106 558.822 97.6636 560.202 97.7698C561.582 97.876 562.537 97.929 563.068 97.929C563.705 97.8229 564.023 97.6636 564.023 97.4513C564.023 97.1328 564.023 96.549 564.023 95.6997C564.023 93.5765 563.44 91.5595 562.272 89.6486ZM615.352 34.0744C617.156 34.0744 618.749 34.1806 620.129 34.3929V69.2661C620.129 72.7694 620.023 76.4849 619.81 80.4128C619.704 84.3407 619.81 87.5255 620.129 89.9671C621.933 88.3747 623.473 86.6231 624.747 84.7122C626.127 82.8014 627.401 80.8905 628.568 78.9797C629.736 76.9626 630.904 74.9456 632.072 72.9286C633.346 70.9116 634.779 69.0007 636.371 67.196C637.751 67.7268 639.556 68.0453 641.785 68.1515C644.015 68.1515 646.297 68.1515 648.632 68.1515C651.074 68.0453 653.463 67.9391 655.798 67.833C658.134 67.6207 660.045 67.5676 661.531 67.6737C657.603 73.7248 653.357 79.7228 648.792 85.6677C644.227 91.5064 639.715 97.3982 635.256 103.343C640.034 111.093 644.811 118.789 649.588 126.433C654.471 133.97 658.93 141.826 662.964 150C661.478 150 659.567 150.053 657.231 150.159C655.002 150.372 652.666 150.531 650.225 150.637C647.783 150.743 645.395 150.743 643.059 150.637C640.83 150.531 638.919 150.318 637.327 150C635.734 147.452 634.248 144.851 632.868 142.197C631.594 139.543 630.32 136.942 629.046 134.395C627.772 131.741 626.392 129.14 624.906 126.592C623.526 124.044 621.933 121.602 620.129 119.267C620.129 121.178 620.182 123.407 620.288 125.955C620.394 128.503 620.447 131.157 620.447 133.917C620.447 136.677 620.394 139.49 620.288 142.357C620.182 145.117 619.916 147.665 619.492 150C618.324 149.894 616.838 149.894 615.033 150C613.335 150 611.53 150.053 609.619 150.159C607.708 150.265 605.744 150.318 603.727 150.318C601.816 150.318 600.065 150.212 598.472 150C597.729 130.254 597.57 110.88 597.995 91.878C598.419 72.8755 598.579 53.7138 598.472 34.3929C600.065 34.3929 601.816 34.3929 603.727 34.3929C605.744 34.2867 607.708 34.2337 609.619 34.2337C611.636 34.1275 613.547 34.0744 615.352 34.0744ZM725.747 70.2215C728.401 70.3277 731.427 70.4869 734.824 70.6993C734.93 71.3362 734.983 71.9732 734.983 72.6101C735.089 73.2471 735.142 73.884 735.142 74.521V76.1134C734.824 87.5785 734.877 98.8845 735.302 110.031C735.726 121.072 735.567 132.271 734.824 143.63C734.824 145.011 734.771 146.391 734.665 147.771C734.665 149.151 734.028 149.947 732.754 150.159H730.843C729.145 150.159 727.393 150.106 725.588 150C723.89 149.788 722.191 149.682 720.493 149.682C719.325 149.682 718.157 149.788 716.989 150C715.928 150.106 714.813 150.159 713.645 150.159C712.902 149.947 712.371 149.522 712.053 148.885C711.841 148.248 711.734 147.505 711.734 146.656C711.734 145.488 711.841 144.533 712.053 143.79C712.265 143.047 712.371 142.144 712.371 141.083C709.824 143.63 706.586 145.807 702.658 147.611C698.836 149.416 695.067 150.318 691.352 150.318C687.212 150.318 683.655 148.885 680.683 146.019C677.817 143.153 675.428 139.596 673.517 135.35C671.606 131.104 670.173 126.486 669.218 121.496C668.369 116.507 667.944 111.889 667.944 107.643C667.944 102.335 668.634 97.4513 670.014 92.9926C671.394 88.534 673.252 84.7122 675.587 81.5275C678.029 78.2365 680.895 75.6887 684.186 73.884C687.477 71.9732 690.98 70.9647 694.696 70.8585C696.607 70.8585 698.358 70.9116 699.951 71.0177C701.649 71.0177 703.189 71.2831 704.569 71.8139C705.949 72.2386 707.17 72.9817 708.231 74.0433C709.293 74.9987 710.195 76.3788 710.938 78.1835C710.832 76.4849 710.885 75.0518 711.097 73.884C711.416 72.6101 711.575 71.3362 711.575 70.0623C711.575 69.9562 711.894 69.9031 712.531 69.9031C713.274 69.7969 714.07 69.7969 714.919 69.9031C715.768 69.9031 716.618 69.9031 717.467 69.9031C718.316 69.9031 718.9 69.9031 719.219 69.9031C721.023 70.0092 723.2 70.1154 725.747 70.2215ZM692.944 95.3812C690.503 97.3982 689.016 99.7337 688.486 102.388C688.061 103.768 687.796 105.201 687.689 106.687C687.583 108.067 687.53 109.447 687.53 110.827C687.53 115.605 688.751 119.692 691.193 123.089C693.74 126.38 697.244 128.025 701.702 128.025C704.356 128.025 706.32 127.6 707.594 126.751C708.974 125.796 709.93 124.522 710.461 122.929C711.097 121.231 711.416 119.214 711.416 116.878C711.522 114.437 711.575 111.73 711.575 108.757C711.575 105.042 711.522 102.122 711.416 99.9991C711.416 97.7698 711.151 96.0713 710.62 94.9035C710.195 93.7358 709.399 92.9926 708.231 92.6742C707.17 92.3557 705.524 92.1965 703.295 92.1965C698.942 92.1965 695.492 93.258 692.944 95.3812ZM775.364 74.9987C775.364 76.1665 775.417 77.4934 775.523 78.9797C776.054 78.6612 776.691 78.2896 777.434 77.865C778.283 77.4404 778.973 77.0157 779.504 76.5911C781.733 74.9987 784.228 73.7248 786.988 72.7694C789.748 71.8139 792.562 71.2831 795.428 71.177C798.4 71.0708 801.267 71.3893 804.027 72.1324C806.787 72.8755 809.282 74.2025 811.511 76.1134C812.573 77.0688 813.369 79.0858 813.9 82.1644C814.537 85.1369 814.908 88.7463 815.014 92.9926C815.227 97.239 815.28 101.91 815.173 107.006C815.173 111.995 815.12 117.091 815.014 122.293C814.908 127.388 814.802 132.325 814.696 137.102C814.59 141.879 814.643 146.072 814.855 149.682C811.139 150.212 807.795 150.425 804.823 150.318C801.957 150.318 798.666 150.318 794.95 150.318C794.738 147.877 794.632 145.117 794.632 142.038C794.632 138.959 794.632 135.775 794.632 132.484C794.738 129.193 794.738 125.902 794.632 122.611C794.632 119.32 794.526 116.241 794.313 113.375C794.207 112.101 794.101 110.721 793.995 109.235C793.889 107.643 793.676 106.103 793.358 104.617C793.145 103.131 792.774 101.804 792.243 100.636C791.819 99.4683 791.182 98.566 790.332 97.929C790.226 97.8229 790.12 97.7698 790.014 97.7698C789.908 97.7698 789.801 97.7167 789.695 97.6106C788.846 97.1859 787.572 96.8674 785.874 96.6551C784.281 96.3366 782.689 96.4428 781.096 96.9736C779.504 97.3982 778.071 98.3537 776.797 99.8399C775.523 101.22 774.78 103.343 774.568 106.209C774.355 109.925 774.302 113.587 774.408 117.197C774.515 120.7 774.621 124.256 774.727 127.866C774.939 131.369 775.045 134.872 775.045 138.376C775.045 141.879 774.833 145.382 774.408 148.885V149.522C772.604 150.053 771.011 150.372 769.631 150.478C768.357 150.584 767.03 150.584 765.65 150.478C764.27 150.478 762.731 150.425 761.032 150.318C759.334 150.212 757.211 150.265 754.663 150.478C754.663 137.42 754.504 124.363 754.185 111.305C753.973 98.2475 754.079 84.7122 754.504 70.6993C755.778 70.8054 756.839 70.9116 757.688 71.0177C758.538 71.0177 759.334 71.0177 760.077 71.0177C760.82 71.0177 761.616 71.0177 762.466 71.0177C763.315 70.9116 764.376 70.8054 765.65 70.6993C766.075 70.6993 766.818 70.6462 767.88 70.54C768.941 70.3277 770.003 70.1685 771.064 70.0623C772.126 69.9562 773.081 69.9562 773.931 70.0623C774.78 70.0623 775.205 70.2215 775.205 70.54C775.417 72.3447 775.47 73.831 775.364 74.9987ZM844.664 69.9031C847.105 70.0092 850.025 70.0092 853.422 69.9031H856.129V70.3808C856.023 83.226 855.757 96.3367 855.333 109.713C855.014 123.089 855.227 136.199 855.97 149.045C855.439 149.682 854.112 150 851.989 150C849.865 150.106 847.53 150.106 844.982 150C842.541 150 840.205 149.947 837.976 149.841C835.746 149.735 834.26 149.788 833.517 150C834.048 143.312 834.26 136.518 834.154 129.617C834.154 122.717 834.048 115.87 833.835 109.076C833.623 102.282 833.517 95.5935 833.517 89.0117C833.517 82.3237 833.835 75.848 834.472 69.5846V69.4254C834.897 69.3192 835.587 69.3192 836.543 69.4254C837.604 69.5315 838.4 69.5846 838.931 69.5846C840.311 69.6908 842.222 69.7969 844.664 69.9031ZM833.995 47.6097C833.782 44.2126 833.729 40.0724 833.835 35.1891L855.492 35.6668C855.492 36.3038 855.492 37.4715 855.492 39.1701C855.598 40.7624 855.651 42.5671 855.651 44.5842C855.757 46.495 855.81 48.512 855.81 50.6352C855.917 52.6522 855.97 54.4569 855.97 56.0493C855.545 56.6863 854.536 57.1109 852.944 57.3232C851.458 57.5356 849.653 57.6417 847.53 57.6417C845.513 57.5356 843.337 57.4294 841.001 57.3232C838.666 57.1109 836.489 57.0578 834.472 57.164C834.472 54.0854 834.313 50.9006 833.995 47.6097Z" fill="#171717"/>
<path d="M150.954 129.412C171.387 160.777 220.064 109.493 212.001 93.5093C205.55 80.7205 157.272 49.8176 115.214 53.0512C73.1555 56.2848 27.9066 82.7306 40.9394 129.193C99.0864 79.5548 131.482 99.5208 150.954 129.412Z" fill="url(#paint0_linear_1_34)"/>
<path d="M99.3447 115.678C139.777 109.98 138.499 148.205 128.843 162.828C121.117 174.528 76.0067 193.513 46.2999 180.093C16.593 166.672 10.4209 146.358 13.9141 116.833C44.3203 177.449 57.7242 121.543 99.3447 115.678Z" fill="url(#paint1_linear_1_34)"/>
<defs>
<linearGradient id="paint0_linear_1_34" x1="121.553" y1="52.5532" x2="128.621" y2="142.552" gradientUnits="userSpaceOnUse">
<stop stop-color="#FF4003"/>
<stop offset="1" stop-color="#DC7210"/>
</linearGradient>
<linearGradient id="paint1_linear_1_34" x1="60.7417" y1="184.524" x2="80.6494" y2="107.033" gradientUnits="userSpaceOnUse">
<stop stop-color="#FF4003"/>
<stop offset="1" stop-color="#DC7210"/>
</linearGradient>
</defs>
</svg>
