<svg width="862" height="200" viewBox="0 0 862 200" fill="none" xmlns="http://www.w3.org/2000/svg">
<path d="M259.671 74.9935C259.671 76.1614 259.724 77.4885 259.83 78.9748C260.361 78.6563 260.998 78.2847 261.741 77.86C262.59 77.4354 263.28 77.0107 263.811 76.586C266.041 74.9935 268.536 73.7195 271.296 72.7641C274.056 71.8086 276.87 71.2777 279.736 71.1716C282.709 71.0654 285.575 71.3839 288.336 72.1271C291.096 72.8702 293.591 74.1973 295.82 76.1083C296.351 76.6391 296.882 77.5415 297.413 78.8155C297.944 78.497 298.581 78.1785 299.324 77.86C300.067 77.4354 300.704 77.0107 301.235 76.586C303.464 74.9935 305.959 73.7195 308.72 72.7641C311.48 71.8086 314.293 71.2777 317.16 71.1716C320.133 71.0654 322.999 71.3839 325.759 72.1271C328.52 72.8702 331.015 74.1973 333.244 76.1083C334.306 77.0638 335.102 79.0809 335.633 82.1598C336.27 85.1324 336.641 88.7421 336.748 92.9887C336.96 97.2354 337.013 101.907 336.907 107.003C336.907 111.992 336.854 117.088 336.748 122.291C336.641 127.387 336.535 132.323 336.429 137.101C336.323 141.878 336.376 146.072 336.588 149.682C332.872 150.212 329.528 150.425 326.556 150.318C323.689 150.318 320.398 150.318 316.682 150.318C316.47 147.877 316.364 145.116 316.364 142.038C316.364 138.959 316.364 135.774 316.364 132.483C316.47 129.191 316.47 125.9 316.364 122.609C316.364 119.318 316.257 116.239 316.045 113.373C315.939 112.099 315.833 110.718 315.727 109.232C315.62 107.64 315.408 106.1 315.09 104.614C314.877 103.128 314.506 101.801 313.975 100.633C313.55 99.4649 312.913 98.5624 312.064 97.9255C311.958 97.8193 311.852 97.7662 311.745 97.7662C311.639 97.7662 311.533 97.7131 311.427 97.607C310.79 97.2885 309.994 97.023 309.038 96.8107C308.083 96.5984 307.021 96.4922 305.853 96.4922C304.791 96.4922 303.677 96.7045 302.509 97.1292C301.447 97.4477 300.439 97.9785 299.483 98.7217C299.589 102.862 299.589 107.268 299.483 111.939C299.377 116.505 299.271 121.07 299.165 125.635C299.059 130.094 298.952 134.447 298.846 138.693C298.846 142.834 298.952 146.497 299.165 149.682C295.449 150.212 292.105 150.425 289.132 150.318C286.265 150.318 282.974 150.318 279.258 150.318C279.046 147.877 278.94 145.116 278.94 142.038C278.94 138.959 278.94 135.774 278.94 132.483C279.046 129.191 279.046 125.9 278.94 122.609C278.94 119.318 278.834 116.239 278.621 113.373C278.515 112.099 278.409 110.718 278.303 109.232C278.197 107.64 277.984 106.1 277.666 104.614C277.454 103.128 277.082 101.801 276.551 100.633C276.127 99.4649 275.49 98.5624 274.64 97.9255C274.534 97.8193 274.428 97.7662 274.322 97.7662C274.216 97.7662 274.109 97.7131 274.003 97.607C273.154 97.1823 271.88 96.8638 270.181 96.6515C268.589 96.333 266.996 96.4391 265.404 96.97C263.811 97.3946 262.378 98.3501 261.104 99.8364C259.83 101.217 259.087 103.34 258.875 106.206C258.662 109.922 258.609 113.585 258.715 117.195C258.821 120.698 258.928 124.255 259.034 127.864C259.246 131.368 259.352 134.871 259.352 138.375C259.352 141.878 259.14 145.382 258.715 148.885V149.522C256.91 150.053 255.318 150.372 253.938 150.478C252.664 150.584 251.337 150.584 249.957 150.478C248.576 150.478 247.037 150.425 245.338 150.318C243.64 150.212 241.516 150.265 238.968 150.478C238.968 137.419 238.809 124.361 238.491 111.302C238.278 98.2439 238.384 84.7078 238.809 70.6938C240.083 70.8 241.145 70.9061 241.994 71.0123C242.843 71.0123 243.64 71.0123 244.383 71.0123C245.126 71.0123 245.922 71.0123 246.772 71.0123C247.621 70.9061 248.683 70.8 249.957 70.6938C250.381 70.6938 251.124 70.6407 252.186 70.5346C253.248 70.3222 254.309 70.163 255.371 70.0568C256.433 69.9506 257.388 69.9506 258.238 70.0568C259.087 70.0568 259.512 70.2161 259.512 70.5346C259.724 72.3394 259.777 73.8257 259.671 74.9935ZM410.734 70.2161C413.388 70.3222 416.414 70.4815 419.811 70.6938C419.917 71.3308 419.97 71.9678 419.97 72.6048C420.076 73.2418 420.129 73.8788 420.129 74.5158V76.1083C419.811 87.5742 419.864 98.8809 420.289 110.028C420.713 121.07 420.554 132.27 419.811 143.63C419.811 145.01 419.758 146.39 419.652 147.771C419.652 149.151 419.015 149.947 417.741 150.159H415.83C414.131 150.159 412.379 150.106 410.575 150C408.876 149.788 407.177 149.682 405.479 149.682C404.311 149.682 403.143 149.788 401.975 150C400.913 150.106 399.799 150.159 398.631 150.159C397.888 149.947 397.357 149.522 397.038 148.885C396.826 148.248 396.72 147.505 396.72 146.656C396.72 145.488 396.826 144.532 397.038 143.789C397.251 143.046 397.357 142.144 397.357 141.082C394.809 143.63 391.571 145.806 387.643 147.611C383.821 149.416 380.052 150.318 376.336 150.318C372.195 150.318 368.639 148.885 365.666 146.019C362.8 143.152 360.411 139.596 358.5 135.349C356.589 131.102 355.156 126.484 354.2 121.494C353.351 116.505 352.926 111.886 352.926 107.64C352.926 102.331 353.616 97.4477 354.997 92.9887C356.377 88.5297 358.235 84.7078 360.57 81.5228C363.012 78.2316 365.879 75.6836 369.17 73.8788C372.461 71.9678 375.964 70.9592 379.68 70.8531C381.591 70.8531 383.343 70.9061 384.935 71.0123C386.634 71.0123 388.173 71.2777 389.554 71.8086C390.934 72.2332 392.155 72.9764 393.216 74.038C394.278 74.9935 395.18 76.3737 395.924 78.1785C395.817 76.4799 395.871 75.0466 396.083 73.8788C396.401 72.6048 396.561 71.3308 396.561 70.0568C396.561 69.9506 396.879 69.8976 397.516 69.8976C398.259 69.7914 399.055 69.7914 399.905 69.8976C400.754 69.8976 401.603 69.8976 402.453 69.8976C403.302 69.8976 403.886 69.8976 404.205 69.8976C406.009 70.0037 408.186 70.1099 410.734 70.2161ZM377.928 95.3775C375.487 97.3946 374 99.7303 373.469 102.384C373.045 103.765 372.779 105.198 372.673 106.684C372.567 108.064 372.514 109.444 372.514 110.825C372.514 115.602 373.735 119.69 376.177 123.087C378.725 126.378 382.228 128.024 386.687 128.024C389.341 128.024 391.305 127.599 392.579 126.75C393.96 125.794 394.915 124.52 395.446 122.928C396.083 121.229 396.401 119.212 396.401 116.876C396.508 114.434 396.561 111.727 396.561 108.754C396.561 105.039 396.508 102.119 396.401 99.9957C396.401 97.7662 396.136 96.0675 395.605 94.8997C395.18 93.7319 394.384 92.9887 393.216 92.6702C392.155 92.3517 390.509 92.1925 388.28 92.1925C383.927 92.1925 380.476 93.2541 377.928 95.3775ZM460.354 74.9935C460.354 76.1614 460.407 77.4885 460.513 78.9748C461.044 78.6563 461.681 78.2847 462.424 77.86C463.273 77.4354 463.963 77.0107 464.494 76.586C466.724 74.9935 469.219 73.7195 471.979 72.7641C474.739 71.8086 477.553 71.2777 480.419 71.1716C483.392 71.0654 486.258 71.3839 489.019 72.1271C491.779 72.8702 494.274 74.1973 496.503 76.1083C497.565 77.0638 498.361 79.0809 498.892 82.1598C499.529 85.1324 499.901 88.7421 500.007 92.9887C500.219 97.2354 500.272 101.907 500.166 107.003C500.166 111.992 500.113 117.088 500.007 122.291C499.901 127.387 499.794 132.323 499.688 137.101C499.582 141.878 499.635 146.072 499.847 149.682C496.132 150.212 492.787 150.425 489.815 150.318C486.948 150.318 483.657 150.318 479.941 150.318C479.729 147.877 479.623 145.116 479.623 142.038C479.623 138.959 479.623 135.774 479.623 132.483C479.729 129.191 479.729 125.9 479.623 122.609C479.623 119.318 479.517 116.239 479.304 113.373C479.198 112.099 479.092 110.718 478.986 109.232C478.88 107.64 478.667 106.1 478.349 104.614C478.136 103.128 477.765 101.801 477.234 100.633C476.809 99.4649 476.172 98.5624 475.323 97.9255C475.217 97.8193 475.111 97.7662 475.005 97.7662C474.898 97.7662 474.792 97.7131 474.686 97.607C473.837 97.1823 472.563 96.8638 470.864 96.6515C469.272 96.333 467.679 96.4391 466.087 96.97C464.494 97.3946 463.061 98.3501 461.787 99.8364C460.513 101.217 459.77 103.34 459.557 106.206C459.345 109.922 459.292 113.585 459.398 117.195C459.504 120.698 459.61 124.255 459.717 127.864C459.929 131.368 460.035 134.871 460.035 138.375C460.035 141.878 459.823 145.382 459.398 148.885V149.522C457.593 150.053 456.001 150.372 454.621 150.478C453.347 150.584 452.02 150.584 450.639 150.478C449.259 150.478 447.72 150.425 446.021 150.318C444.323 150.212 442.199 150.265 439.651 150.478C439.651 137.419 439.492 124.361 439.173 111.302C438.961 98.2439 439.067 84.7078 439.492 70.6938C440.766 70.8 441.828 70.9061 442.677 71.0123C443.526 71.0123 444.323 71.0123 445.066 71.0123C445.809 71.0123 446.605 71.0123 447.454 71.0123C448.304 70.9061 449.365 70.8 450.639 70.6938C451.064 70.6938 451.807 70.6407 452.869 70.5346C453.931 70.3222 454.992 70.163 456.054 70.0568C457.116 69.9506 458.071 69.9506 458.92 70.0568C459.77 70.0568 460.194 70.2161 460.194 70.5346C460.407 72.3394 460.46 73.8257 460.354 74.9935ZM543.194 110.506C540.859 110.4 539.16 110.241 538.098 110.028V112.895C538.205 116.08 538.311 118.681 538.417 120.698C538.629 122.715 539.319 124.679 540.487 126.59C541.761 129.032 543.566 130.837 545.902 132.005C548.237 133.173 550.52 133.544 552.749 133.12C554.979 132.695 556.837 131.421 558.323 129.298C559.916 127.068 560.606 123.777 560.393 119.424C561.455 119.53 562.888 119.583 564.693 119.583C566.498 119.477 568.356 119.371 570.267 119.265C572.284 119.159 574.195 119.159 576 119.265C577.805 119.265 579.291 119.424 580.459 119.743C580.246 122.503 580.034 125.21 579.822 127.864C579.609 130.518 579.344 133.013 579.026 135.349C578.707 137.579 578.282 139.543 577.752 141.241C577.327 142.834 576.743 143.949 576 144.586C574.195 147.134 571.859 148.938 568.993 150C566.126 151.062 562.994 151.699 559.597 151.911C556.2 152.123 552.696 152.123 549.087 151.911C545.583 151.699 542.345 151.592 539.372 151.592C536.4 151.168 533.639 150.212 531.091 148.726C528.225 146.709 525.836 144.108 523.925 140.923C522.014 137.632 520.475 134.075 519.307 130.253C518.139 126.325 517.343 122.184 516.918 117.832C516.494 113.479 516.387 109.126 516.6 104.773C516.918 100.845 517.237 97.0761 517.555 93.4665C517.98 89.7507 518.829 86.141 520.103 82.6375C521.483 79.5587 523.607 76.9576 526.473 74.8343C529.34 72.6048 532.578 70.9592 536.187 69.8976C539.797 68.7297 543.619 68.0927 547.653 67.9866C551.688 67.8804 555.616 68.3051 559.438 69.2606C564.322 70.1099 568.25 71.8086 571.222 74.3565C574.195 76.9045 576.424 79.9834 577.911 83.593C579.503 87.2027 580.459 91.1839 580.777 95.5367C581.096 99.8895 581.096 104.295 580.777 108.754C580.034 108.967 578.601 109.179 576.478 109.391C574.46 109.604 572.019 109.816 569.152 110.028C566.392 110.241 563.419 110.4 560.234 110.506C557.049 110.612 553.97 110.665 550.998 110.665C548.131 110.665 545.53 110.612 543.194 110.506ZM561.827 89.6445C560.765 87.7335 559.279 86.3002 557.368 85.3448C556.518 84.8139 555.669 84.4423 554.82 84.23C553.97 83.9115 552.962 83.7523 551.794 83.7523C549.246 83.7523 547.176 84.0177 545.583 84.5485C543.991 85.0793 542.717 85.8225 541.761 86.778C540.806 87.7335 540.063 88.8482 539.532 90.1222C539.107 91.3962 538.789 92.7233 538.576 94.1035C538.364 95.2713 538.258 96.1206 538.258 96.6515C538.364 97.0761 538.895 97.3946 539.85 97.607C540.806 97.7131 542.292 97.7662 544.309 97.7662C546.433 97.66 549.511 97.607 553.546 97.607C556.306 97.607 558.376 97.66 559.756 97.7662C561.137 97.8724 562.092 97.9255 562.623 97.9255C563.26 97.8193 563.578 97.66 563.578 97.4477C563.578 97.1292 563.578 96.5453 563.578 95.696C563.578 93.5726 562.994 91.5555 561.827 89.6445ZM614.91 34.0664C616.715 34.0664 618.307 34.1726 619.688 34.385V69.2606C619.688 72.764 619.581 76.4799 619.369 80.408C619.263 84.3362 619.369 87.5212 619.688 89.963C621.492 88.3705 623.032 86.6187 624.306 84.7078C625.686 82.7968 626.96 80.8858 628.128 78.9748C629.296 76.9576 630.464 74.9405 631.631 72.9233C632.905 70.9061 634.339 68.9951 635.931 67.1903C637.311 67.7211 639.116 68.0397 641.346 68.1458C643.575 68.1458 645.858 68.1458 648.193 68.1458C650.635 68.0397 653.024 67.9335 655.359 67.8273C657.695 67.615 659.606 67.5619 661.092 67.6681C657.164 73.7195 652.918 79.7179 648.353 85.6633C643.787 91.5024 639.275 97.3946 634.816 103.34C639.594 111.09 644.371 118.787 649.149 126.431C654.032 133.969 658.491 141.825 662.526 150C661.039 150 659.128 150.053 656.793 150.159C654.563 150.372 652.228 150.531 649.786 150.637C647.344 150.743 644.955 150.743 642.62 150.637C640.39 150.531 638.479 150.318 636.887 150C635.294 147.452 633.808 144.851 632.428 142.197C631.154 139.543 629.88 136.942 628.606 134.394C627.332 131.739 625.951 129.138 624.465 126.59C623.085 124.042 621.492 121.601 619.688 119.265C619.688 121.176 619.741 123.405 619.847 125.953C619.953 128.501 620.006 131.155 620.006 133.916C620.006 136.676 619.953 139.49 619.847 142.356C619.741 145.116 619.475 147.664 619.051 150C617.883 149.894 616.396 149.894 614.592 150C612.893 150 611.088 150.053 609.177 150.159C607.266 150.265 605.302 150.318 603.285 150.318C601.374 150.318 599.622 150.212 598.03 150C597.287 130.253 597.127 110.878 597.552 91.874C597.977 72.8702 598.136 53.7072 598.03 34.385C599.622 34.385 601.374 34.385 603.285 34.385C605.302 34.2788 607.266 34.2257 609.177 34.2257C611.194 34.1195 613.105 34.0664 614.91 34.0664ZM725.314 70.2161C727.968 70.3222 730.993 70.4815 734.391 70.6938C734.497 71.3308 734.55 71.9678 734.55 72.6048C734.656 73.2418 734.709 73.8788 734.709 74.5158V76.1083C734.391 87.5742 734.444 98.8809 734.868 110.028C735.293 121.07 735.134 132.27 734.391 143.63C734.391 145.01 734.338 146.39 734.231 147.771C734.231 149.151 733.594 149.947 732.32 150.159H730.41C728.711 150.159 726.959 150.106 725.154 150C723.456 149.788 721.757 149.682 720.058 149.682C718.89 149.682 717.723 149.788 716.555 150C715.493 150.106 714.378 150.159 713.211 150.159C712.467 149.947 711.937 149.522 711.618 148.885C711.406 148.248 711.3 147.505 711.3 146.656C711.3 145.488 711.406 144.532 711.618 143.789C711.83 143.046 711.937 142.144 711.937 141.082C709.389 143.63 706.151 145.806 702.222 147.611C698.4 149.416 694.631 150.318 690.916 150.318C686.775 150.318 683.219 148.885 680.246 146.019C677.379 143.152 674.991 139.596 673.08 135.349C671.169 131.102 669.735 126.484 668.78 121.494C667.931 116.505 667.506 111.886 667.506 107.64C667.506 102.331 668.196 97.4477 669.576 92.9887C670.956 88.5297 672.814 84.7078 675.15 81.5228C677.592 78.2316 680.458 75.6836 683.749 73.8788C687.041 71.9678 690.544 70.9592 694.26 70.8531C696.171 70.8531 697.923 70.9061 699.515 71.0123C701.214 71.0123 702.753 71.2777 704.133 71.8086C705.514 72.2332 706.734 72.9764 707.796 74.038C708.858 74.9935 709.76 76.3737 710.503 78.1785C710.397 76.4799 710.45 75.0466 710.663 73.8788C710.981 72.6048 711.14 71.3308 711.14 70.0568C711.14 69.9506 711.459 69.8976 712.096 69.8976C712.839 69.7914 713.635 69.7914 714.485 69.8976C715.334 69.8976 716.183 69.8976 717.033 69.8976C717.882 69.8976 718.466 69.8976 718.784 69.8976C720.589 70.0037 722.766 70.1099 725.314 70.2161ZM692.508 95.3775C690.066 97.3946 688.58 99.7303 688.049 102.384C687.624 103.765 687.359 105.198 687.253 106.684C687.147 108.064 687.094 109.444 687.094 110.825C687.094 115.602 688.315 119.69 690.756 123.087C693.304 126.378 696.808 128.024 701.267 128.024C703.921 128.024 705.885 127.599 707.159 126.75C708.539 125.794 709.495 124.52 710.026 122.928C710.663 121.229 710.981 119.212 710.981 116.876C711.087 114.434 711.14 111.727 711.14 108.754C711.14 105.039 711.087 102.119 710.981 99.9957C710.981 97.7662 710.716 96.0675 710.185 94.8997C709.76 93.7319 708.964 92.9887 707.796 92.6702C706.734 92.3517 705.089 92.1925 702.859 92.1925C698.507 92.1925 695.056 93.2541 692.508 95.3775ZM774.933 74.9935C774.933 76.1614 774.986 77.4885 775.093 78.9748C775.623 78.6563 776.26 78.2847 777.004 77.86C777.853 77.4354 778.543 77.0107 779.074 76.586C781.303 74.9935 783.798 73.7195 786.559 72.7641C789.319 71.8086 792.132 71.2777 794.999 71.1716C797.971 71.0654 800.838 71.3839 803.598 72.1271C806.359 72.8702 808.854 74.1973 811.083 76.1083C812.145 77.0638 812.941 79.0809 813.472 82.1598C814.109 85.1324 814.48 88.7421 814.586 92.9887C814.799 97.2354 814.852 101.907 814.746 107.003C814.746 111.992 814.693 117.088 814.586 122.291C814.48 127.387 814.374 132.323 814.268 137.101C814.162 141.878 814.215 146.072 814.427 149.682C810.711 150.212 807.367 150.425 804.395 150.318C801.528 150.318 798.237 150.318 794.521 150.318C794.309 147.877 794.203 145.116 794.203 142.038C794.203 138.959 794.203 135.774 794.203 132.483C794.309 129.191 794.309 125.9 794.203 122.609C794.203 119.318 794.096 116.239 793.884 113.373C793.778 112.099 793.672 110.718 793.566 109.232C793.459 107.64 793.247 106.1 792.929 104.614C792.716 103.128 792.345 101.801 791.814 100.633C791.389 99.4649 790.752 98.5624 789.903 97.9255C789.797 97.8193 789.691 97.7662 789.584 97.7662C789.478 97.7662 789.372 97.7131 789.266 97.607C788.417 97.1823 787.143 96.8638 785.444 96.6515C783.851 96.333 782.259 96.4391 780.666 96.97C779.074 97.3946 777.641 98.3501 776.367 99.8364C775.093 101.217 774.349 103.34 774.137 106.206C773.925 109.922 773.872 113.585 773.978 117.195C774.084 120.698 774.19 124.255 774.296 127.864C774.509 131.368 774.615 134.871 774.615 138.375C774.615 141.878 774.403 145.382 773.978 148.885V149.522C772.173 150.053 770.581 150.372 769.2 150.478C767.926 150.584 766.599 150.584 765.219 150.478C763.839 150.478 762.3 150.425 760.601 150.318C758.902 150.212 756.779 150.265 754.231 150.478C754.231 137.419 754.072 124.361 753.753 111.302C753.541 98.2439 753.647 84.7078 754.072 70.6938C755.346 70.8 756.407 70.9061 757.257 71.0123C758.106 71.0123 758.902 71.0123 759.645 71.0123C760.389 71.0123 761.185 71.0123 762.034 71.0123C762.884 70.9061 763.945 70.8 765.219 70.6938C765.644 70.6938 766.387 70.6407 767.449 70.5346C768.51 70.3222 769.572 70.163 770.634 70.0568C771.695 69.9506 772.651 69.9506 773.5 70.0568C774.349 70.0568 774.774 70.2161 774.774 70.5346C774.986 72.3394 775.04 73.8257 774.933 74.9935ZM844.238 69.8976C846.68 70.0037 849.599 70.0037 852.997 69.8976H855.704V70.3753C855.598 83.2214 855.332 96.333 854.908 109.71C854.589 123.087 854.801 136.198 855.545 149.045C855.014 149.682 853.687 150 851.563 150C849.44 150.106 847.104 150.106 844.556 150C842.115 150 839.779 149.947 837.549 149.841C835.32 149.735 833.834 149.788 833.09 150C833.621 143.312 833.834 136.517 833.727 129.616C833.727 122.715 833.621 115.868 833.409 109.073C833.197 102.278 833.09 95.5898 833.09 89.0075C833.09 82.319 833.409 75.8429 834.046 69.5791V69.4198C834.471 69.3136 835.161 69.3136 836.116 69.4198C837.178 69.526 837.974 69.5791 838.505 69.5791C839.885 69.6852 841.796 69.7914 844.238 69.8976ZM833.568 47.6027C833.356 44.2053 833.303 40.0648 833.409 35.1812L855.067 35.6589C855.067 36.2959 855.067 37.4638 855.067 39.1624C855.173 40.7549 855.226 42.5597 855.226 44.5769C855.332 46.4879 855.385 48.5051 855.385 50.6284C855.492 52.6455 855.545 54.4504 855.545 56.0429C855.12 56.6799 854.111 57.1045 852.519 57.3169C851.033 57.5292 849.228 57.6354 847.104 57.6354C845.087 57.5292 842.911 57.423 840.575 57.3169C838.24 57.1045 836.063 57.0514 834.046 57.1576C834.046 54.0788 833.887 50.8938 833.568 47.6027Z" fill="white"/>
<path d="M150.475 129.412C170.91 160.777 219.594 109.493 211.53 93.5093C205.078 80.7205 156.793 49.8176 114.729 53.0512C72.6653 56.2848 27.4101 82.7306 40.4447 129.193C98.5997 79.5548 131 99.5208 150.475 129.412Z" fill="url(#paint0_linear_5_40)"/>
<path d="M98.8583 115.678C139.296 109.98 138.018 148.205 128.361 162.828C120.634 174.528 75.5171 193.513 45.8062 180.093C16.0952 166.672 9.92229 146.358 13.416 116.833C43.8264 177.449 57.2321 121.543 98.8583 115.678Z" fill="url(#paint1_linear_5_40)"/>
<defs>
<linearGradient id="paint0_linear_5_40" x1="121.07" y1="52.5532" x2="128.137" y2="142.552" gradientUnits="userSpaceOnUse">
<stop stop-color="#FF4003"/>
<stop offset="1" stop-color="#DC7210"/>
</linearGradient>
<linearGradient id="paint1_linear_5_40" x1="60.25" y1="184.524" x2="80.1553" y2="107.032" gradientUnits="userSpaceOnUse">
<stop stop-color="#FF4003"/>
<stop offset="1" stop-color="#DC7210"/>
</linearGradient>
</defs>
</svg>
