<svg width="862" height="200" viewBox="0 0 862 200" fill="none" xmlns="http://www.w3.org/2000/svg">
<path d="M260.171 74.9935C260.171 76.1614 260.224 77.4885 260.33 78.9748C260.861 78.6563 261.498 78.2847 262.241 77.86C263.09 77.4354 263.78 77.0107 264.311 76.586C266.541 74.9935 269.036 73.7195 271.796 72.7641C274.556 71.8086 277.37 71.2777 280.236 71.1716C283.209 71.0654 286.075 71.3839 288.836 72.1271C291.596 72.8702 294.091 74.1973 296.32 76.1083C296.851 76.6391 297.382 77.5415 297.913 78.8155C298.444 78.497 299.081 78.1785 299.824 77.86C300.567 77.4354 301.204 77.0107 301.735 76.586C303.964 74.9935 306.459 73.7195 309.22 72.7641C311.98 71.8086 314.793 71.2777 317.66 71.1716C320.633 71.0654 323.499 71.3839 326.259 72.1271C329.02 72.8702 331.515 74.1973 333.744 76.1083C334.806 77.0638 335.602 79.0809 336.133 82.1598C336.77 85.1324 337.141 88.7421 337.248 92.9887C337.46 97.2354 337.513 101.907 337.407 107.003C337.407 111.992 337.354 117.088 337.248 122.291C337.141 127.387 337.035 132.323 336.929 137.101C336.823 141.878 336.876 146.072 337.088 149.682C333.372 150.212 330.028 150.425 327.056 150.318C324.189 150.318 320.898 150.318 317.182 150.318C316.97 147.877 316.864 145.116 316.864 142.038C316.864 138.959 316.864 135.774 316.864 132.483C316.97 129.191 316.97 125.9 316.864 122.609C316.864 119.318 316.757 116.239 316.545 113.373C316.439 112.099 316.333 110.718 316.227 109.232C316.12 107.64 315.908 106.1 315.59 104.614C315.377 103.128 315.006 101.801 314.475 100.633C314.05 99.4649 313.413 98.5624 312.564 97.9255C312.458 97.8193 312.352 97.7662 312.245 97.7662C312.139 97.7662 312.033 97.7131 311.927 97.607C311.29 97.2885 310.494 97.023 309.538 96.8107C308.583 96.5984 307.521 96.4922 306.353 96.4922C305.291 96.4922 304.177 96.7045 303.009 97.1292C301.947 97.4477 300.939 97.9785 299.983 98.7217C300.089 102.862 300.089 107.268 299.983 111.939C299.877 116.505 299.771 121.07 299.665 125.635C299.559 130.094 299.452 134.447 299.346 138.693C299.346 142.834 299.452 146.497 299.665 149.682C295.949 150.212 292.605 150.425 289.632 150.318C286.765 150.318 283.474 150.318 279.758 150.318C279.546 147.877 279.44 145.116 279.44 142.038C279.44 138.959 279.44 135.774 279.44 132.483C279.546 129.191 279.546 125.9 279.44 122.609C279.44 119.318 279.334 116.239 279.121 113.373C279.015 112.099 278.909 110.718 278.803 109.232C278.697 107.64 278.484 106.1 278.166 104.614C277.954 103.128 277.582 101.801 277.051 100.633C276.627 99.4649 275.99 98.5624 275.14 97.9255C275.034 97.8193 274.928 97.7662 274.822 97.7662C274.716 97.7662 274.609 97.7131 274.503 97.607C273.654 97.1823 272.38 96.8638 270.681 96.6515C269.089 96.333 267.496 96.4391 265.904 96.97C264.311 97.3946 262.878 98.3501 261.604 99.8364C260.33 101.217 259.587 103.34 259.375 106.206C259.162 109.922 259.109 113.585 259.215 117.195C259.321 120.698 259.428 124.255 259.534 127.864C259.746 131.368 259.852 134.871 259.852 138.375C259.852 141.878 259.64 145.382 259.215 148.885V149.522C257.41 150.053 255.818 150.372 254.438 150.478C253.164 150.584 251.837 150.584 250.457 150.478C249.076 150.478 247.537 150.425 245.838 150.318C244.14 150.212 242.016 150.265 239.468 150.478C239.468 137.419 239.309 124.361 238.991 111.302C238.778 98.2439 238.884 84.7078 239.309 70.6938C240.583 70.8 241.645 70.9061 242.494 71.0123C243.343 71.0123 244.14 71.0123 244.883 71.0123C245.626 71.0123 246.422 71.0123 247.272 71.0123C248.121 70.9061 249.183 70.8 250.457 70.6938C250.881 70.6938 251.624 70.6407 252.686 70.5346C253.748 70.3222 254.809 70.163 255.871 70.0568C256.933 69.9506 257.888 69.9506 258.738 70.0568C259.587 70.0568 260.012 70.2161 260.012 70.5346C260.224 72.3394 260.277 73.8257 260.171 74.9935ZM411.234 70.2161C413.888 70.3222 416.914 70.4815 420.311 70.6938C420.417 71.3308 420.47 71.9678 420.47 72.6048C420.576 73.2418 420.629 73.8788 420.629 74.5158V76.1083C420.311 87.5742 420.364 98.8809 420.789 110.028C421.213 121.07 421.054 132.27 420.311 143.63C420.311 145.01 420.258 146.39 420.152 147.771C420.152 149.151 419.515 149.947 418.241 150.159H416.33C414.631 150.159 412.879 150.106 411.075 150C409.376 149.788 407.677 149.682 405.979 149.682C404.811 149.682 403.643 149.788 402.475 150C401.413 150.106 400.299 150.159 399.131 150.159C398.388 149.947 397.857 149.522 397.538 148.885C397.326 148.248 397.22 147.505 397.22 146.656C397.22 145.488 397.326 144.532 397.538 143.789C397.751 143.046 397.857 142.144 397.857 141.082C395.309 143.63 392.071 145.806 388.143 147.611C384.321 149.416 380.552 150.318 376.836 150.318C372.695 150.318 369.139 148.885 366.166 146.019C363.3 143.152 360.911 139.596 359 135.349C357.089 131.102 355.656 126.484 354.7 121.494C353.851 116.505 353.426 111.886 353.426 107.64C353.426 102.331 354.116 97.4477 355.497 92.9887C356.877 88.5297 358.735 84.7078 361.07 81.5228C363.512 78.2316 366.379 75.6836 369.67 73.8788C372.961 71.9678 376.464 70.9592 380.18 70.8531C382.091 70.8531 383.843 70.9061 385.435 71.0123C387.134 71.0123 388.673 71.2777 390.054 71.8086C391.434 72.2332 392.655 72.9764 393.716 74.038C394.778 74.9935 395.68 76.3737 396.424 78.1785C396.317 76.4799 396.371 75.0466 396.583 73.8788C396.901 72.6048 397.061 71.3308 397.061 70.0568C397.061 69.9506 397.379 69.8976 398.016 69.8976C398.759 69.7914 399.555 69.7914 400.405 69.8976C401.254 69.8976 402.103 69.8976 402.953 69.8976C403.802 69.8976 404.386 69.8976 404.705 69.8976C406.509 70.0037 408.686 70.1099 411.234 70.2161ZM378.428 95.3775C375.987 97.3946 374.5 99.7303 373.969 102.384C373.545 103.765 373.279 105.198 373.173 106.684C373.067 108.064 373.014 109.444 373.014 110.825C373.014 115.602 374.235 119.69 376.677 123.087C379.225 126.378 382.728 128.024 387.187 128.024C389.841 128.024 391.805 127.599 393.079 126.75C394.46 125.794 395.415 124.52 395.946 122.928C396.583 121.229 396.901 119.212 396.901 116.876C397.008 114.434 397.061 111.727 397.061 108.754C397.061 105.039 397.008 102.119 396.901 99.9957C396.901 97.7662 396.636 96.0675 396.105 94.8997C395.68 93.7319 394.884 92.9887 393.716 92.6702C392.655 92.3517 391.009 92.1925 388.78 92.1925C384.427 92.1925 380.976 93.2541 378.428 95.3775ZM460.854 74.9935C460.854 76.1614 460.907 77.4885 461.013 78.9748C461.544 78.6563 462.181 78.2847 462.924 77.86C463.773 77.4354 464.463 77.0107 464.994 76.586C467.224 74.9935 469.719 73.7195 472.479 72.7641C475.239 71.8086 478.053 71.2777 480.919 71.1716C483.892 71.0654 486.758 71.3839 489.519 72.1271C492.279 72.8702 494.774 74.1973 497.003 76.1083C498.065 77.0638 498.861 79.0809 499.392 82.1598C500.029 85.1324 500.401 88.7421 500.507 92.9887C500.719 97.2354 500.772 101.907 500.666 107.003C500.666 111.992 500.613 117.088 500.507 122.291C500.401 127.387 500.294 132.323 500.188 137.101C500.082 141.878 500.135 146.072 500.347 149.682C496.632 150.212 493.287 150.425 490.315 150.318C487.448 150.318 484.157 150.318 480.441 150.318C480.229 147.877 480.123 145.116 480.123 142.038C480.123 138.959 480.123 135.774 480.123 132.483C480.229 129.191 480.229 125.9 480.123 122.609C480.123 119.318 480.017 116.239 479.804 113.373C479.698 112.099 479.592 110.718 479.486 109.232C479.38 107.64 479.167 106.1 478.849 104.614C478.636 103.128 478.265 101.801 477.734 100.633C477.309 99.4649 476.672 98.5624 475.823 97.9255C475.717 97.8193 475.611 97.7662 475.505 97.7662C475.398 97.7662 475.292 97.7131 475.186 97.607C474.337 97.1823 473.063 96.8638 471.364 96.6515C469.772 96.333 468.179 96.4391 466.587 96.97C464.994 97.3946 463.561 98.3501 462.287 99.8364C461.013 101.217 460.27 103.34 460.057 106.206C459.845 109.922 459.792 113.585 459.898 117.195C460.004 120.698 460.11 124.255 460.217 127.864C460.429 131.368 460.535 134.871 460.535 138.375C460.535 141.878 460.323 145.382 459.898 148.885V149.522C458.093 150.053 456.501 150.372 455.121 150.478C453.847 150.584 452.52 150.584 451.139 150.478C449.759 150.478 448.22 150.425 446.521 150.318C444.823 150.212 442.699 150.265 440.151 150.478C440.151 137.419 439.992 124.361 439.673 111.302C439.461 98.2439 439.567 84.7078 439.992 70.6938C441.266 70.8 442.328 70.9061 443.177 71.0123C444.026 71.0123 444.823 71.0123 445.566 71.0123C446.309 71.0123 447.105 71.0123 447.954 71.0123C448.804 70.9061 449.865 70.8 451.139 70.6938C451.564 70.6938 452.307 70.6407 453.369 70.5346C454.431 70.3222 455.492 70.163 456.554 70.0568C457.616 69.9506 458.571 69.9506 459.42 70.0568C460.27 70.0568 460.694 70.2161 460.694 70.5346C460.907 72.3394 460.96 73.8257 460.854 74.9935ZM543.694 110.506C541.359 110.4 539.66 110.241 538.598 110.028V112.895C538.705 116.08 538.811 118.681 538.917 120.698C539.129 122.715 539.819 124.679 540.987 126.59C542.261 129.032 544.066 130.837 546.402 132.005C548.737 133.173 551.02 133.544 553.249 133.12C555.479 132.695 557.337 131.421 558.823 129.298C560.416 127.068 561.106 123.777 560.893 119.424C561.955 119.53 563.388 119.583 565.193 119.583C566.998 119.477 568.856 119.371 570.767 119.265C572.784 119.159 574.695 119.159 576.5 119.265C578.305 119.265 579.791 119.424 580.959 119.743C580.746 122.503 580.534 125.21 580.322 127.864C580.109 130.518 579.844 133.013 579.526 135.349C579.207 137.579 578.782 139.543 578.252 141.241C577.827 142.834 577.243 143.949 576.5 144.586C574.695 147.134 572.359 148.938 569.493 150C566.626 151.062 563.494 151.699 560.097 151.911C556.7 152.123 553.196 152.123 549.587 151.911C546.083 151.699 542.845 151.592 539.872 151.592C536.9 151.168 534.139 150.212 531.591 148.726C528.725 146.709 526.336 144.108 524.425 140.923C522.514 137.632 520.975 134.075 519.807 130.253C518.639 126.325 517.843 122.184 517.418 117.832C516.994 113.479 516.887 109.126 517.1 104.773C517.418 100.845 517.737 97.0761 518.055 93.4665C518.48 89.7507 519.329 86.141 520.603 82.6375C521.983 79.5587 524.107 76.9576 526.973 74.8343C529.84 72.6048 533.078 70.9592 536.687 69.8976C540.297 68.7297 544.119 68.0927 548.153 67.9866C552.188 67.8804 556.116 68.3051 559.938 69.2606C564.822 70.1099 568.75 71.8086 571.722 74.3565C574.695 76.9045 576.924 79.9834 578.411 83.593C580.003 87.2027 580.959 91.1839 581.277 95.5367C581.596 99.8895 581.596 104.295 581.277 108.754C580.534 108.967 579.101 109.179 576.978 109.391C574.96 109.604 572.519 109.816 569.652 110.028C566.892 110.241 563.919 110.4 560.734 110.506C557.549 110.612 554.47 110.665 551.498 110.665C548.631 110.665 546.03 110.612 543.694 110.506ZM562.327 89.6445C561.265 87.7335 559.779 86.3002 557.868 85.3448C557.018 84.8139 556.169 84.4423 555.32 84.23C554.47 83.9115 553.462 83.7523 552.294 83.7523C549.746 83.7523 547.676 84.0177 546.083 84.5485C544.491 85.0793 543.217 85.8225 542.261 86.778C541.306 87.7335 540.563 88.8482 540.032 90.1222C539.607 91.3962 539.289 92.7233 539.076 94.1035C538.864 95.2713 538.758 96.1206 538.758 96.6515C538.864 97.0761 539.395 97.3946 540.35 97.607C541.306 97.7131 542.792 97.7662 544.809 97.7662C546.933 97.66 550.011 97.607 554.046 97.607C556.806 97.607 558.876 97.66 560.256 97.7662C561.637 97.8724 562.592 97.9255 563.123 97.9255C563.76 97.8193 564.078 97.66 564.078 97.4477C564.078 97.1292 564.078 96.5453 564.078 95.696C564.078 93.5726 563.494 91.5555 562.327 89.6445ZM615.41 34.0664C617.215 34.0664 618.807 34.1726 620.188 34.385V69.2606C620.188 72.764 620.081 76.4799 619.869 80.408C619.763 84.3362 619.869 87.5212 620.188 89.963C621.992 88.3705 623.532 86.6187 624.806 84.7078C626.186 82.7968 627.46 80.8858 628.628 78.9748C629.796 76.9576 630.964 74.9405 632.131 72.9233C633.405 70.9061 634.839 68.9951 636.431 67.1903C637.811 67.7211 639.616 68.0397 641.846 68.1458C644.075 68.1458 646.358 68.1458 648.693 68.1458C651.135 68.0397 653.524 67.9335 655.859 67.8273C658.195 67.615 660.106 67.5619 661.592 67.6681C657.664 73.7195 653.418 79.7179 648.853 85.6633C644.287 91.5024 639.775 97.3946 635.316 103.34C640.094 111.09 644.871 118.787 649.649 126.431C654.532 133.969 658.991 141.825 663.026 150C661.539 150 659.628 150.053 657.293 150.159C655.063 150.372 652.728 150.531 650.286 150.637C647.844 150.743 645.455 150.743 643.12 150.637C640.89 150.531 638.979 150.318 637.387 150C635.794 147.452 634.308 144.851 632.928 142.197C631.654 139.543 630.38 136.942 629.106 134.394C627.832 131.739 626.451 129.138 624.965 126.59C623.585 124.042 621.992 121.601 620.188 119.265C620.188 121.176 620.241 123.405 620.347 125.953C620.453 128.501 620.506 131.155 620.506 133.916C620.506 136.676 620.453 139.49 620.347 142.356C620.241 145.116 619.975 147.664 619.551 150C618.383 149.894 616.896 149.894 615.092 150C613.393 150 611.588 150.053 609.677 150.159C607.766 150.265 605.802 150.318 603.785 150.318C601.874 150.318 600.122 150.212 598.53 150C597.787 130.253 597.627 110.878 598.052 91.874C598.477 72.8702 598.636 53.7072 598.53 34.385C600.122 34.385 601.874 34.385 603.785 34.385C605.802 34.2788 607.766 34.2257 609.677 34.2257C611.694 34.1195 613.605 34.0664 615.41 34.0664ZM725.814 70.2161C728.468 70.3222 731.493 70.4815 734.891 70.6938C734.997 71.3308 735.05 71.9678 735.05 72.6048C735.156 73.2418 735.209 73.8788 735.209 74.5158V76.1083C734.891 87.5742 734.944 98.8809 735.368 110.028C735.793 121.07 735.634 132.27 734.891 143.63C734.891 145.01 734.838 146.39 734.731 147.771C734.731 149.151 734.094 149.947 732.82 150.159H730.91C729.211 150.159 727.459 150.106 725.654 150C723.956 149.788 722.257 149.682 720.558 149.682C719.39 149.682 718.223 149.788 717.055 150C715.993 150.106 714.878 150.159 713.711 150.159C712.967 149.947 712.437 149.522 712.118 148.885C711.906 148.248 711.8 147.505 711.8 146.656C711.8 145.488 711.906 144.532 712.118 143.789C712.33 143.046 712.437 142.144 712.437 141.082C709.889 143.63 706.651 145.806 702.722 147.611C698.9 149.416 695.131 150.318 691.416 150.318C687.275 150.318 683.719 148.885 680.746 146.019C677.879 143.152 675.491 139.596 673.58 135.349C671.669 131.102 670.235 126.484 669.28 121.494C668.431 116.505 668.006 111.886 668.006 107.64C668.006 102.331 668.696 97.4477 670.076 92.9887C671.456 88.5297 673.314 84.7078 675.65 81.5228C678.092 78.2316 680.958 75.6836 684.249 73.8788C687.541 71.9678 691.044 70.9592 694.76 70.8531C696.671 70.8531 698.423 70.9061 700.015 71.0123C701.714 71.0123 703.253 71.2777 704.633 71.8086C706.014 72.2332 707.234 72.9764 708.296 74.038C709.358 74.9935 710.26 76.3737 711.003 78.1785C710.897 76.4799 710.95 75.0466 711.163 73.8788C711.481 72.6048 711.64 71.3308 711.64 70.0568C711.64 69.9506 711.959 69.8976 712.596 69.8976C713.339 69.7914 714.135 69.7914 714.985 69.8976C715.834 69.8976 716.683 69.8976 717.533 69.8976C718.382 69.8976 718.966 69.8976 719.284 69.8976C721.089 70.0037 723.266 70.1099 725.814 70.2161ZM693.008 95.3775C690.566 97.3946 689.08 99.7303 688.549 102.384C688.124 103.765 687.859 105.198 687.753 106.684C687.647 108.064 687.594 109.444 687.594 110.825C687.594 115.602 688.815 119.69 691.256 123.087C693.804 126.378 697.308 128.024 701.767 128.024C704.421 128.024 706.385 127.599 707.659 126.75C709.039 125.794 709.995 124.52 710.526 122.928C711.163 121.229 711.481 119.212 711.481 116.876C711.587 114.434 711.64 111.727 711.64 108.754C711.64 105.039 711.587 102.119 711.481 99.9957C711.481 97.7662 711.216 96.0675 710.685 94.8997C710.26 93.7319 709.464 92.9887 708.296 92.6702C707.234 92.3517 705.589 92.1925 703.359 92.1925C699.007 92.1925 695.556 93.2541 693.008 95.3775ZM775.433 74.9935C775.433 76.1614 775.486 77.4885 775.593 78.9748C776.123 78.6563 776.76 78.2847 777.504 77.86C778.353 77.4354 779.043 77.0107 779.574 76.586C781.803 74.9935 784.298 73.7195 787.059 72.7641C789.819 71.8086 792.632 71.2777 795.499 71.1716C798.471 71.0654 801.338 71.3839 804.098 72.1271C806.859 72.8702 809.354 74.1973 811.583 76.1083C812.645 77.0638 813.441 79.0809 813.972 82.1598C814.609 85.1324 814.98 88.7421 815.086 92.9887C815.299 97.2354 815.352 101.907 815.246 107.003C815.246 111.992 815.193 117.088 815.086 122.291C814.98 127.387 814.874 132.323 814.768 137.101C814.662 141.878 814.715 146.072 814.927 149.682C811.211 150.212 807.867 150.425 804.895 150.318C802.028 150.318 798.737 150.318 795.021 150.318C794.809 147.877 794.703 145.116 794.703 142.038C794.703 138.959 794.703 135.774 794.703 132.483C794.809 129.191 794.809 125.9 794.703 122.609C794.703 119.318 794.596 116.239 794.384 113.373C794.278 112.099 794.172 110.718 794.066 109.232C793.959 107.64 793.747 106.1 793.429 104.614C793.216 103.128 792.845 101.801 792.314 100.633C791.889 99.4649 791.252 98.5624 790.403 97.9255C790.297 97.8193 790.191 97.7662 790.084 97.7662C789.978 97.7662 789.872 97.7131 789.766 97.607C788.917 97.1823 787.643 96.8638 785.944 96.6515C784.351 96.333 782.759 96.4391 781.166 96.97C779.574 97.3946 778.141 98.3501 776.867 99.8364C775.593 101.217 774.849 103.34 774.637 106.206C774.425 109.922 774.372 113.585 774.478 117.195C774.584 120.698 774.69 124.255 774.796 127.864C775.009 131.368 775.115 134.871 775.115 138.375C775.115 141.878 774.903 145.382 774.478 148.885V149.522C772.673 150.053 771.081 150.372 769.7 150.478C768.426 150.584 767.099 150.584 765.719 150.478C764.339 150.478 762.8 150.425 761.101 150.318C759.402 150.212 757.279 150.265 754.731 150.478C754.731 137.419 754.572 124.361 754.253 111.302C754.041 98.2439 754.147 84.7078 754.572 70.6938C755.846 70.8 756.907 70.9061 757.757 71.0123C758.606 71.0123 759.402 71.0123 760.145 71.0123C760.889 71.0123 761.685 71.0123 762.534 71.0123C763.384 70.9061 764.445 70.8 765.719 70.6938C766.144 70.6938 766.887 70.6407 767.949 70.5346C769.01 70.3222 770.072 70.163 771.134 70.0568C772.195 69.9506 773.151 69.9506 774 70.0568C774.849 70.0568 775.274 70.2161 775.274 70.5346C775.486 72.3394 775.54 73.8257 775.433 74.9935ZM844.738 69.8976C847.18 70.0037 850.099 70.0037 853.497 69.8976H856.204V70.3753C856.098 83.2214 855.832 96.333 855.408 109.71C855.089 123.087 855.301 136.198 856.045 149.045C855.514 149.682 854.187 150 852.063 150C849.94 150.106 847.604 150.106 845.056 150C842.615 150 840.279 149.947 838.049 149.841C835.82 149.735 834.334 149.788 833.59 150C834.121 143.312 834.334 136.517 834.227 129.616C834.227 122.715 834.121 115.868 833.909 109.073C833.697 102.278 833.59 95.5898 833.59 89.0075C833.59 82.319 833.909 75.8429 834.546 69.5791V69.4198C834.971 69.3136 835.661 69.3136 836.616 69.4198C837.678 69.526 838.474 69.5791 839.005 69.5791C840.385 69.6852 842.296 69.7914 844.738 69.8976ZM834.068 47.6027C833.856 44.2053 833.803 40.0648 833.909 35.1812L855.567 35.6589C855.567 36.2959 855.567 37.4638 855.567 39.1624C855.673 40.7549 855.726 42.5597 855.726 44.5769C855.832 46.4879 855.885 48.5051 855.885 50.6284C855.992 52.6455 856.045 54.4504 856.045 56.0429C855.62 56.6799 854.611 57.1045 853.019 57.3169C851.533 57.5292 849.728 57.6354 847.604 57.6354C845.587 57.5292 843.411 57.423 841.075 57.3169C838.74 57.1045 836.563 57.0514 834.546 57.1576C834.546 54.0788 834.387 50.8938 834.068 47.6027Z" fill="#171717"/>
<path d="M150.975 129.412C171.41 160.777 220.094 109.493 212.03 93.5093C205.578 80.7205 157.293 49.8176 115.229 53.0512C73.1653 56.2848 27.9101 82.7306 40.9447 129.193C99.0997 79.5548 131.5 99.5208 150.975 129.412Z" fill="#171717"/>
<path d="M99.3583 115.678C139.796 109.98 138.518 148.205 128.861 162.828C121.134 174.528 76.0171 193.513 46.3062 180.093C16.5952 166.672 10.4223 146.358 13.916 116.833C44.3264 177.449 57.7321 121.543 99.3583 115.678Z" fill="#171717"/>
</svg>
